<?xml version="1.0" encoding="UTF-8"?>
<svg width="45px" height="66px" viewBox="0 0 45 66" version="1.1" xmlns="http://www.w3.org/2000/svg" xmlns:xlink="http://www.w3.org/1999/xlink">
    <!-- Generator: Sketch 46.2 (44496) - http://www.bohemiancoding.com/sketch -->
    <title>Group 5</title>
    <desc>Created with Sketch.</desc>
    <defs></defs>
    <g id="Page-1" stroke="none" stroke-width="1" fill="none" fill-rule="evenodd">
        <g id="Find-a-bus-stop-near-me-Copy" transform="translate(-137.000000, -184.000000)" fill="#FF2029">
            <g id="Group-5" transform="translate(137.000000, 184.000000)">
                <path d="M22.5,66 C7.5,45.436456 0,30.9854756 0,22.6470588 C0,10.1394336 10.0735931,0 22.5,0 C34.9264069,0 45,10.1394336 45,22.6470588 C45,30.9854756 37.5,45.436456 22.5,66 Z M23,30 C27.9705627,30 32,25.9705627 32,21 C32,16.0294373 27.9705627,12 23,12 C18.0294373,12 14,16.0294373 14,21 C14,25.9705627 18.0294373,30 23,30 Z" id="Combined-Shape-Copy-4" opacity="0.577502264"></path>
                <path d="M22.5,56 C10.8333333,40.1099887 5,28.9433221 5,22.5 C5,12.8350169 12.8350169,5 22.5,5 C32.1649831,5 40,12.8350169 40,22.5 C40,28.9433221 34.1666667,40.1099887 22.5,56 Z M23,28 C26.8659932,28 30,24.8659932 30,21 C30,17.1340068 26.8659932,14 23,14 C19.1340068,14 16,17.1340068 16,21 C16,24.8659932 19.1340068,28 23,28 Z" id="Combined-Shape-Copy" stroke="#FFFFFF" stroke-width="2"></path>
            </g>
        </g>
    </g>
</svg>